<svg xmlns="http://www.w3.org/2000/svg" version="1.1" xmlns:xlink="http://www.w3.org/1999/xlink" xmlns:svgjs="http://svgjs.dev/svgjs" width="1500" height="1300" viewBox="0 0 1500 1300"><g transform="matrix(1,0,0,1,1.1462718960036682,0.5263157894736423)"><svg viewBox="0 0 285 247" data-background-color="#ffffff" preserveAspectRatio="xMidYMid meet" height="1300" width="1500" xmlns="http://www.w3.org/2000/svg" xmlns:xlink="http://www.w3.org/1999/xlink"><g id="tight-bounds" transform="matrix(1,0,0,1,-0.2177916602406924,-0.09999999999999432)"><svg viewBox="0 0 285.4355833204814 247.2" height="247.2" width="285.4355833204814"><g><svg viewBox="0 0 395.52 342.5380355967144" height="247.2" width="285.4355833204814"><g transform="matrix(1,0,0,1,0,254.86518725007815)"><svg viewBox="0 0 395.52 87.67284834663626" height="87.67284834663626" width="395.52"><g id="textblocktransform"><svg viewBox="0 0 395.52 87.67284834663626" height="87.67284834663626" width="395.52" id="textblock"><g><svg viewBox="0 0 395.52 87.67284834663626" height="87.67284834663626" width="395.52"><g transform="matrix(1,0,0,1,0,0)"><svg width="395.52" viewBox="1.5 -37 219.23 48.6" height="87.67284834663626" data-palette-color="#252422"><path d="M13.2 0.6L13.2 0.6Q9.55 0.6 6.55-0.38 3.55-1.35 1.5-2.95L1.5-2.95 3.9-6.95Q5.7-5.45 7.95-4.5 10.2-3.55 13.2-3.55L13.2-3.55Q16.8-3.55 18.9-5.05 21-6.55 21-9.1L21-9.1Q21-10.55 20.4-11.68 19.8-12.8 18.07-13.88 16.35-14.95 13-16.2L13-16.2Q9.4-17.6 7.25-19.03 5.1-20.45 4.17-22.28 3.25-24.1 3.25-26.6L3.25-26.6Q3.25-29.1 4.63-31.13 6-33.15 8.68-34.38 11.35-35.6 15.15-35.6L15.15-35.6Q18.25-35.6 20.73-34.98 23.2-34.35 25.55-33.2L25.55-33.2 23.8-29.15Q22.1-30.15 19.83-30.83 17.55-31.5 15.05-31.5L15.05-31.5Q11.75-31.5 9.85-30.2 7.95-28.9 7.95-26.85L7.95-26.85Q7.95-25.55 8.5-24.55 9.05-23.55 10.68-22.6 12.3-21.65 15.55-20.45L15.55-20.45Q19.45-19 21.73-17.4 24-15.8 24.95-13.93 25.9-12.05 25.9-9.65L25.9-9.65Q25.9-6.4 24.28-4.1 22.65-1.8 19.78-0.6 16.9 0.6 13.2 0.6ZM41.5 0.6L41.5 0.6Q37.75 0.6 35.57-1.88 33.4-4.35 33.4-8.95L33.4-8.95 33.4-21.15 28.9-21.15 28.9-25.05 33.5-25.05 34.45-33.25 37.9-33.25 37.9-25.05 45.1-25.05 45.1-21.15 37.9-21.15 37.9-8.6Q37.9-5.7 39.12-4.55 40.35-3.4 42.05-3.4L42.05-3.4Q43.3-3.4 44.42-3.8 45.55-4.2 46.5-4.75L46.5-4.75 47.75-1.15Q46.75-0.55 45.05 0.03 43.35 0.6 41.5 0.6ZM61.65 0.6L61.65 0.6Q56.05 0.6 52.77-2.98 49.5-6.55 49.5-13L49.5-13Q49.5-16.9 50.97-19.98 52.45-23.05 55.1-24.83 57.75-26.6 61.25-26.6L61.25-26.6Q65-26.6 67.47-24.98 69.95-23.35 71.2-20.6 72.45-17.85 72.45-14.55L72.45-14.55Q72.45-12.8 72.3-11.15L72.3-11.15 54.1-11.15Q54.55-7.5 56.65-5.45 58.75-3.4 62.2-3.4L62.2-3.4Q64.45-3.4 66.25-3.88 68.05-4.35 69.7-5.1L69.7-5.1 70.75-1.25Q68.95-0.45 66.7 0.08 64.45 0.6 61.65 0.6ZM54.05-14.8L54.05-14.8 68.3-14.8Q68.3-18.6 66.4-20.65 64.5-22.7 61.15-22.7L61.15-22.7Q58.25-22.7 56.35-20.68 54.45-18.65 54.05-14.8ZM83.89 11L79.39 11 79.39-19.35Q79.39-21.05 78.57-21.78 77.74-22.5 76.44-22.5L76.44-22.5 77.39-26Q81.99-26 83.14-22.35L83.14-22.35Q83.64-23.1 84.77-24.1 85.89-25.1 87.57-25.85 89.24-26.6 91.39-26.6L91.39-26.6Q94.39-26.6 97.02-25.03 99.64-23.45 101.24-20.48 102.84-17.5 102.84-13.25L102.84-13.25Q102.84-9.1 101.24-5.98 99.64-2.85 97.07-1.13 94.49 0.6 91.49 0.6L91.49 0.6Q89.19 0.6 87.19-0.33 85.19-1.25 83.89-2.45L83.89-2.45 83.89 11ZM90.59-3.4L90.59-3.4Q93.99-3.4 96.12-6.08 98.24-8.75 98.24-13.1L98.24-13.1Q98.24-16.1 97.17-18.25 96.09-20.4 94.32-21.55 92.54-22.7 90.39-22.7L90.39-22.7Q88.24-22.7 86.52-21.63 84.79-20.55 83.89-19.3L83.89-19.3 83.89-6.5Q85.19-5.15 86.89-4.28 88.59-3.4 90.59-3.4ZM118.29 0.6L118.29 0.6Q114.64 0.6 111.64-0.38 108.64-1.35 106.59-2.95L106.59-2.95 108.99-6.95Q110.79-5.45 113.04-4.5 115.29-3.55 118.29-3.55L118.29-3.55Q121.89-3.55 123.99-5.05 126.09-6.55 126.09-9.1L126.09-9.1Q126.09-10.55 125.49-11.68 124.89-12.8 123.17-13.88 121.44-14.95 118.09-16.2L118.09-16.2Q114.49-17.6 112.34-19.03 110.19-20.45 109.27-22.28 108.34-24.1 108.34-26.6L108.34-26.6Q108.34-29.1 109.72-31.13 111.09-33.15 113.77-34.38 116.44-35.6 120.24-35.6L120.24-35.6Q123.34-35.6 125.82-34.98 128.29-34.35 130.64-33.2L130.64-33.2 128.89-29.15Q127.19-30.15 124.92-30.83 122.64-31.5 120.14-31.5L120.14-31.5Q116.84-31.5 114.94-30.2 113.04-28.9 113.04-26.85L113.04-26.85Q113.04-25.55 113.59-24.55 114.14-23.55 115.77-22.6 117.39-21.65 120.64-20.45L120.64-20.45Q124.54-19 126.82-17.4 129.09-15.8 130.04-13.93 130.99-12.05 130.99-9.65L130.99-9.65Q130.99-6.4 129.37-4.1 127.74-1.8 124.87-0.6 121.99 0.6 118.29 0.6ZM146.59 0.6L146.59 0.6Q142.84 0.6 140.66-1.88 138.49-4.35 138.49-8.95L138.49-8.95 138.49-21.15 133.99-21.15 133.99-25.05 138.59-25.05 139.54-33.25 142.99-33.25 142.99-25.05 150.19-25.05 150.19-21.15 142.99-21.15 142.99-8.6Q142.99-5.7 144.21-4.55 145.44-3.4 147.14-3.4L147.14-3.4Q148.39-3.4 149.51-3.8 150.64-4.2 151.59-4.75L151.59-4.75 152.84-1.15Q151.84-0.55 150.14 0.03 148.44 0.6 146.59 0.6ZM157.49 11.6L157.49 11.6Q155.99 11.6 154.86 11.3 153.74 11 153.09 10.6L153.09 10.6 154.09 6.85Q154.69 7.2 155.59 7.45 156.49 7.7 157.59 7.7L157.59 7.7Q159.69 7.7 161.34 6.35 162.99 5 164.49 1.05L164.49 1.05 165.64-1.95 163.24-1.95 153.09-24.8 157.09-26.6 166.78-4.95 174.34-26.4 178.49-24.8 168.94 1.3Q167.49 5.3 165.78 7.55 164.09 9.8 162.03 10.7 159.99 11.6 157.49 11.6ZM190.88 0.6L190.88 0.6Q188.58 0.6 186.73-0.28 184.88-1.15 183.81-3.1 182.73-5.05 182.73-8.15L182.73-8.15 182.73-37 187.23-37 187.23-8.6Q187.23-5.9 188.36-4.6 189.48-3.3 191.48-3.3L191.48-3.3Q192.43-3.3 193.36-3.53 194.28-3.75 194.93-4.05L194.93-4.05 196.03-0.4Q195.13 0 193.81 0.3 192.48 0.6 190.88 0.6ZM209.93 0.6L209.93 0.6Q204.33 0.6 201.06-2.98 197.78-6.55 197.78-13L197.78-13Q197.78-16.9 199.26-19.98 200.73-23.05 203.38-24.83 206.03-26.6 209.53-26.6L209.53-26.6Q213.28-26.6 215.76-24.98 218.23-23.35 219.48-20.6 220.73-17.85 220.73-14.55L220.73-14.55Q220.73-12.8 220.58-11.15L220.58-11.15 202.38-11.15Q202.83-7.5 204.93-5.45 207.03-3.4 210.48-3.4L210.48-3.4Q212.73-3.4 214.53-3.88 216.33-4.35 217.98-5.1L217.98-5.1 219.03-1.25Q217.23-0.45 214.98 0.08 212.73 0.6 209.93 0.6ZM202.33-14.8L202.33-14.8 216.58-14.8Q216.58-18.6 214.68-20.65 212.78-22.7 209.43-22.7L209.43-22.7Q206.53-22.7 204.63-20.68 202.73-18.65 202.33-14.8Z" opacity="1" transform="matrix(1,0,0,1,0,0)" fill="#252422" class="wordmark-text-0" data-fill-palette-color="primary" id="text-0"></path></svg></g></svg></g></svg></g></svg></g><g transform="matrix(1,0,0,1,91.02486172124142,0)"><svg viewBox="0 0 213.47027655751714 213.47027655751714" height="213.47027655751714" width="213.47027655751714"><g><svg></svg></g><g id="icon-0"><svg viewBox="0 0 213.47027655751714 213.47027655751714" height="213.47027655751714" width="213.47027655751714"><g><path d="M0 106.735c0-58.948 47.787-106.735 106.735-106.735 58.948 0 106.735 47.787 106.735 106.735 0 58.948-47.787 106.735-106.735 106.735-58.948 0-106.735-47.787-106.735-106.735zM106.735 205.564c54.582 0 98.829-44.247 98.829-98.829 0-54.582-44.247-98.829-98.829-98.829-54.582 0-98.829 44.247-98.829 98.829 0 54.582 44.247 98.829 98.829 98.829z" data-fill-palette-color="accent" fill="#eb5e28" stroke="transparent"></path><ellipse rx="105.66778689597098" ry="105.66778689597098" cx="106.73513827875857" cy="106.73513827875857" fill="#eb5e28" stroke="transparent" stroke-width="0" fill-opacity="1" data-fill-palette-color="accent"></ellipse></g><g transform="matrix(1,0,0,1,44.96771020988562,62.72854226228563)"><svg viewBox="0 0 123.5348561377459 88.01319203294588" height="88.01319203294588" width="123.5348561377459"><g><svg xmlns="http://www.w3.org/2000/svg" xmlns:xlink="http://www.w3.org/1999/xlink" version="1.1" x="0" y="0" viewBox="1.948 8.864 48.104 34.272000000000006" enable-background="new 0 0 52 52" xml:space="preserve" height="88.01319203294588" width="123.5348561377459" class="icon-dxe-0" data-fill-palette-color="quaternary" id="dxe-0"><g fill="#ffffff" data-fill-palette-color="quaternary"><path d="M33.849 36.136L50.052 32.931C50.045 31.921 49.835 30.545 48.938 29.374 47.908 28.004 46.238 27.254 43.998 27.134H43.868C43.806 27.14 39.776 27.383 34.79 24.707L31.947 27.55 30.533 26.136 33.019 23.649A25 25 0 0 1 31.183 22.313L28.947 24.55 27.533 23.136 29.665 21.003A28 28 0 0 1 28.092 19.404L25.947 21.55 24.533 20.136 26.79 17.878A33 33 0 0 1 25.44 16.058L22.946 18.55 21.533 17.136 24.326 14.343A40 40 0 0 1 22.838 11.684L22.418 10.864 21.568 11.214C21.448 11.264 9.738 16.004 3.618 10.394L1.948 8.864V36.136z" fill="#ffffff" data-fill-palette-color="quaternary"></path><path d="M34.044 38.136H1.948V39.424C1.948 40.144 2.238 40.844 2.738 41.344 3.248 41.854 3.928 42.134 4.658 42.134H4.947V43.136H6.947V42.134H9.947V43.136H11.947V42.134H14.947V43.136H16.947V42.134H19.947V43.136H21.947V42.134H24.947V43.136H26.947V42.134H29.947V43.136H31.947V42.134H34.048L34.947 41.954V43.136H36.947V41.554L39.947 40.954V42.136H41.947V40.554L44.947 39.954V41.136H46.947V39.554L49.948 38.954V34.991z" fill="#ffffff" data-fill-palette-color="quaternary"></path></g></svg></g></svg></g></svg></g></svg></g><g></g></svg></g><defs></defs></svg><rect width="285.4355833204814" height="247.2" fill="none" stroke="none" visibility="hidden"></rect></g></svg></g></svg>